<?xml version="1.0" encoding="utf-8"?>
<!-- Generator: Adobe Illustrator 25.2.3, SVG Export Plug-In . SVG Version: 6.00 Build 0)  -->
<svg version="1.1" id="Layer_1" xmlns="http://www.w3.org/2000/svg" xmlns:xlink="http://www.w3.org/1999/xlink" x="0px" y="0px"
	 width="93px" height="87px" viewBox="0 0 232 217.8" style="enable-background:new 0 0 232 217.8;" xml:space="preserve">
<style type="text/css">
	.st0{fill:#A4C77B;}
	.st1{fill:#7D5F21;}
</style>
<g id="ballandyarn">
	<path class="st0" d="M228.2,168.5c2.7-1.3,4.2-4.2,3.7-7.1l-17-97.5c-1.3-7.3-4.9-16.8-11.7-19.5c-10.8-4.3-16.8-0.1-20.7,3.6
		s-10.9,22.5-1.8,24.5c7.4,1.7,10.2-5.4,11.1-9.1c0.3-1.2,1.3-2.2,2.6-2.4l2.8-0.5c1.8-0.3,3.5,0.9,3.9,2.7l18.2,101.9
		c0.5,2.9,3.3,4.9,6.2,4.4c0.5-0.1,0.9-0.2,1.4-0.4L228.2,168.5z"/>
	<path class="st1" d="M203.6,77.6 M202,68.9c-4.2-1.5-9,0-11.5,3.7c-1.2,1.7-2.4,3.3-3.6,5c-2,2.9-5.5,4.5-9.1,4.2
		c-1.9-0.2-3.6-0.8-5.1-2l-16.9-12.4c-2.4-1.7-4.7-3.5-7.1-5.2c-7.4-5.4-17.7-3.8-23.1,3.5c-1.8,2.4-3.5,4.8-5.2,7.2
		c-0.2,0.3-0.4,0.6-0.7,1l-0.9-0.5c-5-3.1-10.6-5.4-16.3-6.6C82.9,62.5,62.7,69.5,50,84.9c-5.8,6.9-9.7,15.3-11.2,24.2
		c-0.4,2.1-0.5,4.2-0.8,6.3c-0.1,0.4-0.2,0.7-0.3,1.1v4c0.1,0.4,0.2,0.7,0.3,1.1c0.2,1.9,0.4,3.8,0.7,5.7
		c4.2,25.5,26.2,44.2,52,44.3c3.9,0,7.7-0.4,11.5-1.2c7.2-1.6,14.1-4.6,20.1-9c6.3-4.6,11.5-10.5,15.1-17.3
		c3.5-6.4,5.6-13.4,6.3-20.7c0.4-4.7,0.2-9.4-0.6-14.1c-0.8-4.7-2.3-9.2-4.3-13.5c-3.2-6.8-7.9-12.8-13.6-17.6
		c-0.1-0.1-0.2-0.2-0.2-0.3c0.1-0.2,0.3-0.4,0.4-0.6c1.8-2.5,3.6-5,5.5-7.5c3.4-4.6,7.9-6.2,12.6-2.8c2.1,1.5,5.8,3.8,7.9,5.3
		c5.8,4.3,11.6,8.5,17.4,12.8c2.5,1.9,5.5,3.1,8.7,3.3c5.8,0.5,11.4-2.1,14.7-6.8c1.2-1.6,2.4-3.2,3.6-4.9c1-1.7,3.2-2.2,4.9-1.1
		c0.1,0.1,0.3,0.2,0.4,0.3c0.8,0.7,1.7,1.3,2.6,1.9 M118.5,82.2c-3.8,16.6-13.2,31.4-26.8,41.8c-0.2,0.2-0.5,0.3-0.8,0.5
		c-1.4-1.8-2.6-3.7-3.7-5.7c13.8-10.5,22-24.3,25.3-41.2C112.7,77.7,118.7,81.7,118.5,82.2z M99.8,73.1c2.2,0.3,4.4,0.9,6.5,1.7
		c-1.2,8.2-4.1,16-8.4,23c-3.6,5.7-8.1,10.8-13.4,14.9c-0.1-0.2-0.2-0.5-0.3-0.7c-0.5-1.8-1-3.6-1.5-5.3c-0.2-0.6,0-1.3,0.5-1.7
		c2.6-2.4,5-5,7.1-7.9c5-6.9,8.2-14.8,9.4-23.2C99.7,73.6,99.8,73.3,99.8,73.1z M85,78.5c0.8-1.9,1.8-3.7,2.7-5.6
		c0.2-0.5,0.7-0.8,1.2-0.7c1.4-0.1,2.9-0.1,4.3,0.1c-0.4,3.5-1.3,6.9-2.6,10.2c-2,5.4-5.1,10.3-8.9,14.6l-0.2,0
		c0-0.2-0.1-0.5-0.1-0.7C81.5,90.2,82.7,84.1,85,78.5z M70.3,160.2c-8.1-4-14.8-10.2-19.4-18c-8.8-14.8-7.5-31.6-2.6-41.8
		c0.3,4.3,0.9,8.6,1.8,12.8c0.9,4.2,2.2,8.4,3.8,12.4c4.8,12.2,12.6,23,22.6,31.4c3.3,2.8,6.9,5.3,10.6,7.6
		C81.3,164.3,75.6,162.8,70.3,160.2z M110.1,160.8c-2.9,1.3-5.8,2.3-8.9,3c-0.5,0.1-1,0-1.5-0.2c-28.4-12-46.4-40.5-44.8-71.3
		c0-0.8,0.1-1.7,0.2-2.5c0-0.6,0.2-1.1,0.6-1.5c1.9-2.2,4-4.2,6.2-6c0.4-0.3,0.8-0.6,1.2-0.8c-3.5,17.4-1.1,33.8,8,49
		s22.5,25,39.7,29.9C110.6,160.6,110.4,160.7,110.1,160.8z M125.4,149.7c-1.7,1.9-3.6,3.7-5.6,5.3c-0.3,0.2-0.6,0.3-1,0.3
		c-25.2-3.9-45.1-23.4-49.6-48.5c-1.8-9.9-1.1-20.1,2.2-29.6c0.1-0.6,0.6-1,1.1-1.2c2.2-0.8,4.4-1.6,6.7-2.3
		c0.3-0.1,0.6-0.1,0.8-0.2c-7.4,17.3-6.7,34,2.6,50.2c10,15.9,24.5,24.2,43.2,25.5C125.6,149.4,125.5,149.6,125.4,149.7z
		 M137.2,122.6c-0.1,1-0.2,2-0.3,2.9c-0.9,5.7-2.8,11.2-5.7,16.2c-0.2,0.6-0.8,0.9-1.4,0.9c-2.1-0.1-4.2-0.1-6.3-0.2
		c-0.7,0-1.4-0.2-2.1-0.3l-0.1-0.2c6-5.8,11.3-12.3,15.7-19.4L137.2,122.6z M133.6,100.2c0.2,0.4,0.4,0.7,0.5,0.9
		c1.1,2.7,1.9,5.5,2.5,8.3c0.1,0.4,0,0.9-0.3,1.2c-3,5.9-6.5,11.5-10.6,16.7c-3.5,4.4-7.3,8.6-11.5,12.4c-0.4,0.5-1.1,0.6-1.7,0.3
		c-1.7-0.7-3.4-1.4-5.1-2.1c-0.3-0.1-0.6-0.3-0.9-0.5C118.5,127.5,127.8,114.7,133.6,100.2z M125.2,87.1c1.3,1.5,2.5,3.1,3.8,4.6
		c0.4,0.4,0.5,1.1,0.2,1.6c-5.2,15.6-14.9,29.5-27.7,39.8l-1,0.8l-5.2-4.5c14.2-10.7,24.5-26,29-43.2
		C124.5,86.5,124.8,86.7,125.2,87.1L125.2,87.1z"/>
	<path class="st1" d="M209.6,111.2c-0.1-0.7-0.3-1.3-0.4-1.9c-0.9,1-1.9,1.9-2.9,2.8c-1.7,1.5-3.8,2.6-6,3.2c-0.7,0.1-1.3,0.2-2,0.2
		c-0.9,0-1.6-0.6-1.8-1.4c-0.2-0.8-0.4-1.7-0.5-2.6c0.2-2.6,0.9-5.1,2-7.4c1.9-4.4,4.8-8.3,8.3-11.5c0.5-0.4,1-0.9,1.5-1.3
		c1.4-1.2,3-2.2,4.7-2.9c0.7-0.3,1.4-0.5,2.2-0.6c1.8-0.3,4,3.9,4.1,4.2c0.8,2.1,2.3,9,2.8,10.2l-3.6-20.4c-0.1-0.1-0.9-0.2-1-0.3
		c-1.8-0.4-1.7-0.8-6.6,0.7h-0.1c-1.8,0.7-3.4,1.6-5,2.7c-0.6,0.4-1.2,0.7-1.7,1.2c-4.9,4-8.8,9-11.4,14.7c-2,3.9-2.9,8.3-2.6,12.6
		l-0.1,0.2c-3,0.7-5.8,2-8.3,3.8c-6,4.5-10.7,10.6-13.4,17.6c-1.4,3.2-2,6.8-1.7,10.3c0,0.1,0,0.2,0,0.4c-0.1,0.1-0.2,0.1-0.3,0.1
		c-3.3,0.8-6.4,2.3-9,4.5c-4.8,3.9-8.7,8.8-11.4,14.4c-2,3.9-3,8.3-2.8,12.7c0,0.2,0,0.3,0,0.5c-0.1,0.1-0.2,0.1-0.4,0.1
		c-2.9,0.7-5.7,2-8.1,3.9c-4.1,3.1-7.6,6.9-10.2,11.4c-2.3,3.5-3.8,7.5-4.6,11.6c-0.3,1.1-0.3,2.2-0.2,3.2h6.3
		c0.3-1.5,0.5-3,0.9-4.4c1.5-4.7,4-9.1,7.4-12.7c2-2.3,4.4-4.2,7.1-5.7c1.1-0.6,2.4-1,3.6-1.1c1.2-0.1,2.4,0.6,2.8,1.8
		c0.2,0.5,0.3,1.1,0.3,1.6c0.1,1.5-0.1,2.9-0.5,4.3c-1.6,5.4-4.6,10.2-8.6,14.1c-2,2.1-4.4,3.8-7,5.1l-1.2,0.5
		c0.6,2.1,1.2,4.1,1.9,6.2c5-1.6,8.6-4.8,12.2-8.9c3.1-3.5,5.7-7.4,7.6-11.7c1.6-3.4,2.2-7.1,1.9-10.8c0-0.1,0-0.2,0.1-0.3
		c0.1,0,0.2-0.1,0.3-0.1c3.1-0.7,6-2.1,8.5-4.1c5.7-4.4,10.1-10.2,12.8-16.9c1.4-3.3,2.1-6.9,1.9-10.5c0-0.2,0-0.4,0.1-0.6
		c0.2,0,0.3-0.1,0.4-0.1c5.5-1.3,9.8-4.8,13.7-9.1c2.3-2.6,4.3-5.4,5.9-8.5c2.4-4.5,3.9-9.2,3.5-14.2c0-0.1,0-0.2,0.1-0.3l0.4-0.1
		c2.9-0.7,5.5-2,7.9-3.8c0.4-0.3,0.8-0.7,1.2-1c0,0-0.4-2.1-0.5-3S209.7,112.2,209.6,111.2z M170.8,158.1c-0.5,2.8-1.5,5.4-2.9,7.9
		c-2.2,4-5.1,7.5-8.7,10.4c-1.5,1.3-3.3,2.3-5.2,3c-0.6,0.2-1.3,0.4-1.9,0.4c-1.3,0.3-2.5-0.5-2.8-1.8c-0.1-0.2-0.1-0.5-0.2-0.7
		c-0.1-0.5-0.1-0.9-0.1-1.2c0.1-2.4,0.6-4.7,1.6-6.9c2.2-5.2,5.6-9.8,10-13.4c1.4-1.2,3.1-2.2,4.8-2.9c0.8-0.3,1.6-0.5,2.4-0.6
		c1.3-0.3,2.6,0.5,3,1.8c0,0.1,0,0.1,0,0.2C171.1,155.5,171.1,156.8,170.8,158.1z M193.2,130.2c-2.2,5.4-5.6,10.1-10.1,13.8
		c-1.8,1.5-3.8,2.7-6.1,3.4c-0.5,0.1-1,0.2-1.5,0.3c-1.2,0.2-2.4-0.6-2.7-1.8c-0.3-1.1-0.4-2.2-0.2-3.4c0.3-2.1,0.9-4.2,1.8-6.1
		c2.3-5.1,5.8-9.7,10.2-13.1c1.5-1.2,3.1-2.1,4.9-2.8c0.7-0.2,1.5-0.4,2.2-0.5c1.2-0.2,2.4,0.6,2.6,1.8c0.2,0.7,0.3,1.5,0.4,2.2
		C194.5,126.1,194,128.2,193.2,130.2L193.2,130.2z"/>
</g>
<g id="planet">
	<path class="st0" d="M144.9,68.2c-1.9,1-5.3,2.9-7.2,2.9c-0.8,0-1.5-0.1-2.2-0.3c-2-0.4-3.8-1.6-5-3.2c-1.3-1.8-2.1-3.9-2.1-6.2
		c0-3.7,1.4-7.3,3.9-10.1c2.1-2.4,4.9-4,8-4.6c1.3-0.2,2.7,0.1,3.9,0.7c2.6,1.7,3.2,5.2,1.5,7.8c-0.1,0.1-0.2,0.3-0.3,0.4
		c-1.5,1.8-4.3,2.9-8.6,3.3c-1.4,0.1-2.8,0.1-3.8,0.1c-0.2,0.7-0.2,1.4-0.2,2.2c0.1,2.8,1.4,4.6,3.7,5.2c1.3,0.3,2.8,1,5.2-0.4
		 M146,60.8l0.4-0.7c0.6-1,1.9-1.4,2.9-0.9c1.1,0.5,0.4,2.5-0.2,3.6 M135.1,54.8c0.4,0,0.9-0.1,1.3-0.1c4.2-0.4,5.4-1.5,5.6-1.8
		c0.2-0.3,0.3-0.6,0.2-0.9c-0.1-0.4-0.2-0.8-1.1-0.8h-0.4c-2,0.4-3.9,1.5-5.2,3.1L135.1,54.8z"/>
	<path class="st0" d="M64.7,44.3c-2.1,7.4-5,13.6-8.9,18.3c-3.1,3.9-7.4,6.7-12.2,8.1c-5.2,1.6-10.8,0.2-14.7-3.6
		c-1.3-1.3-2.3-2.8-3-4.5c-0.1,2.5-0.2,4.9-0.4,7.3c-0.8,7.7-2.3,14.3-4.3,18.8c-3.1,6.9-7.1,8.3-9.8,8.3c-3.7,0-7-2-8.8-5.1
		C0.8,88.3,0,84.5,0,80.6c-0.1-5,0.4-10,1.5-14.9c2.7-12.4,7.3-24.4,13.7-35.4l1.2-2.2c-2.3-9.2-5.9-17.5-10.8-23
		c-1.1-1.3-1-3.3,0.3-4.4c1.3-1.1,3.2-1,4.3,0.3c4.3,4.8,7.8,11.5,10.5,19.8c0,0.2,0.1,0.3,0.1,0.5c3.1-4.2,6.7-8,10.9-11.2
		c5.5-4,11.3-5.9,17.2-5.8c5.2,0.1,10,2.5,13.1,6.7c2.7,3.6,4.3,8.6,4.7,14.4C67.1,31.7,66.4,38.1,64.7,44.3z M18.2,37.5
		C13.3,46.8,9.7,56.7,7.5,67c-1.9,9.8-1.8,17.9,0.4,21.7c0.6,1.4,2,2.2,3.5,2.2c1.2,0,2.8-1.7,4.1-4.6C20,76.1,21.2,56,18.2,37.5z
		 M57.1,14.7c-2-2.6-5.1-4.2-8.4-4.2h-0.4c-8.8,0-17.6,6.5-25.4,18.8c1.2,5.4,2,10.8,2.5,16.2c0.2,1.4,0.3,2.8,0.3,4.2
		c0.4-1.3,1.6-2.2,3-2.2c0.3,0,0.6,0.1,0.8,0.2c1.6,0.5,2.6,2.2,2.2,3.8c-1.3,4.6-0.8,8.7,1.6,11.2c2,2.2,5.2,2.9,8.7,2
		c7.3-1.8,13.5-10.2,16.7-22.1S61.3,20.3,57.1,14.7z"/>
	<path class="st0" d="M75.6,68.9c0,1.2-1,2.1-2.2,2.2c-0.7,0-1.4-0.3-1.9-0.9c-1-0.9-1.6-2.8-2-9.2c-0.2-3.7-0.4-8.6-0.4-14.6
		c0-10.1,0.4-20.1,0.4-20.2c0.1-1.2,1.1-2.1,2.2-2.1c1.2,0,2.1,1,2.1,2.2c0,0.1-0.3,9.5-0.4,19.3c0,5.7,0.1,10.5,0.3,14.1
		c0.3,4.9,0.7,6.7,0.9,7.3C75.3,67.5,75.6,68.2,75.6,68.9z"/>
	<path class="st0" d="M100.8,68.8c0,1.2-1,2.1-2.2,2.2c-0.9,0-1.8-0.4-2.4-1.1c-0.9-1-1.4-2.5-1.6-5c-0.1-1.2-0.2-2.5-0.1-3.7
		c-1.1,1.8-2.3,3.5-3.7,5.1c-1.4,1.8-3.3,3.3-5.4,4.3c-0.7,0.3-1.5,0.4-2.3,0.4c-0.9,0-1.7-0.2-2.5-0.6c-1.6-0.8-2.7-2.3-3-4.1
		c-0.3-1.7-0.2-3.4,0.3-5.1c1-3.6,2.9-7,5.4-9.7c3-3.3,6.7-5,10.1-4.8c1.2,0.1,2.1,1.1,2.1,2.3c-0.1,1.2-1.1,2.1-2.3,2
		c-2.9-0.2-5.4,2-6.7,3.4c-2.1,2.2-3.6,4.9-4.4,7.8c-0.6,2.1-0.4,3.8,0.4,4.2c0.5,0.2,1,0.2,1.4,0c1.2-0.5,3.7-2.2,7.5-8.5
		c1.4-2.4,2.7-4.9,3.8-7.5c0.5-1.1,1.8-1.6,2.9-1.1c0.9,0.4,1.4,1.3,1.3,2.2c0,0.1-0.4,3.5-0.5,7.2c-0.1,5.4,0.3,7.3,0.6,8
		C100.3,67.1,100.8,67.9,100.8,68.8z"/>
	<path class="st0" d="M124.4,51.4c1.2,2.6,1.9,5.5,1.8,8.5c0.1,2.4-0.3,4.8-1.2,7.1c-1.5,3.5-3.8,4-5,4c-1.2,0-2.2-1-2.2-2.2
		c0-1.2,1-2.1,2.2-2.1c0,0,0,0,0,0c0.1,0,0.5-0.3,1-1.4c0.6-1.7,0.9-3.5,0.9-5.4c0-3-0.9-8.8-4.6-8.8c-1.5,0-3.3,1.4-4.8,3.8
		s-3.2,6.7-3.8,14.1c-0.1,1.1-1,2-2.1,2h-0.1c-1.1,0-2-0.9-2.1-1.9c-0.1-0.2-0.5-3.8-0.8-8.1c-0.4-5.9-0.3-10.2,0.4-12.6
		c0.3-1.1,1.4-1.8,2.5-1.6c0,0,0.1,0,0.1,0c1.2,0.3,1.9,1.4,1.6,2.6c0,0,0,0,0,0c-0.4,1.7-0.5,3.5-0.4,5.3c0.4-0.8,0.7-1.5,1.1-2.1
		c2.3-3.8,5.3-5.9,8.5-5.9C120.3,46.8,123.1,48.7,124.4,51.4z"/>
	<path class="st0" d="M167.8,68.9c0,1.2-1,2.2-2.2,2.2c-2.4,0-4.7-1.1-6.2-3c-2.1-2.3-3.5-5.9-4.4-11.1c-0.5-3.5-0.8-6.9-0.9-10.4
		l-3.2,0.3h-0.1c-1.2,0.1-2.2-0.9-2.3-2.1c-0.1-1.2,0.9-2.2,2.1-2.3l0,0l3.5-0.4c0.1-5.4,0.5-10.8,1.1-16.1c0.2-1.2,1.3-2,2.5-1.9
		c1.2,0.1,2,1.2,1.8,2.3c0,0,0,0.1,0,0.1c0,0.1-0.9,7.1-1,15.3l8-0.8c1.2-0.1,2.3,0.7,2.4,2c0.1,1.2-0.8,2.2-2,2.4l-8.5,0.8
		c0.2,9.6,1.7,16.3,4.2,19.1c0.7,0.9,1.8,1.4,3,1.4C166.7,66.7,167.7,67.6,167.8,68.9C167.8,68.8,167.8,68.9,167.8,68.9z"/>
</g>
<g id="crochet">
	<path class="st0" d="M23.3,217.3c-6.9-1-13.1-4.9-16.9-10.7c-2.5-3.8-4.1-8.2-4.5-12.7c-0.6-5.2-0.2-10.5,1.2-15.6
		c2.1-7.3,5.1-13.3,9.5-18.1c3.6-4,8.3-6.9,13.5-8.3c3.2-0.8,6.5-0.9,9.7-0.2c3.1,0.7,5.9,2.2,8.1,4.4c2.1,2.2,3.5,4.9,4,7.8
		c0.6,3.4,0.4,6.9-0.7,10.2c-2.3,7.6-7.3,12.7-13.5,13.6c-4.5,0.7-8.9-1.3-11.3-5.1c-3-4.8-2.1-11.3,2.4-17.9
		c0.9-1.4,2.7-1.8,4.1-0.9c0.1,0,0.1,0.1,0.2,0.1c1.3,1,1.7,2.8,0.8,4.2c-1.6,2.1-2.6,4.5-3,7.1c-0.2,1.4,0.1,2.8,0.7,4.1
		c1.1,1.8,3.2,2.7,5.2,2.3c3.7-0.5,6.9-3.9,8.4-9.1c1.4-4.9,0.8-9.2-1.8-11.9s-7.3-3.8-11.9-2.6C19.1,160,12.2,168.3,9,179.9
		c-2.4,9-1.5,17.4,2.5,23.3c2.9,4.4,7.5,7.3,12.7,7.9c6.4,0.9,16,0.5,25.4-13c0.8-1.5,2.7-2,4.2-1.1c1.5,0.8,2,2.7,1.1,4.2
		c-0.1,0.2-0.2,0.3-0.3,0.4c-4.5,6.7-9.5,11.1-15.2,13.6c-3.6,1.6-7.5,2.4-11.4,2.4C26.4,217.6,24.9,217.5,23.3,217.3z"/>
	<path class="st0" d="M77.5,195.9c1.1,1.4,1.6,3.1,1.6,4.9c0,1.6-0.4,3.2-1.4,4.5c-1,1.5-2.7,2.4-4.6,2.4c-1.2,0-2.1-0.9-2.2-2.1
		c0,0,0-0.1,0-0.1c0-1.2,1-2.2,2.2-2.2c1.2,0,1.6-1.5,1.6-2.5c0-0.8-0.2-1.6-0.7-2.2c-0.5-0.6-1.2-0.9-1.9-0.8
		c-1.6,0-3.3,1.4-4.8,3.8s-3.2,6.7-3.8,14.1c-0.1,1.1-1,2-2.1,2h-0.1c-1.1,0-2.1-0.8-2.2-1.9c0-0.1-0.4-3.8-0.7-8.1
		c-0.4-5.9-0.3-10.2,0.3-12.6c0.3-1.2,1.5-1.8,2.7-1.5c1.1,0.3,1.8,1.5,1.5,2.6c-0.3,1.7-0.5,3.5-0.4,5.3c0.3-0.7,0.7-1.4,1.2-2.1
		c2.3-3.8,5.3-5.9,8.5-5.9C74.3,193.4,76.2,194.3,77.5,195.9z"/>
	<path class="st0" d="M102.6,205.5c0.3,6.1-4.3,11.4-10.3,12.2c-0.4,0-0.9,0.1-1.3,0.1c-1.9,0-3.9-0.5-5.5-1.6
		c-2.2-1.4-3.8-3.7-4.3-6.3c-0.8-2.8-0.7-5.7,0.2-8.4c0.7-2.1,1.9-4,3.6-5.5c2.5-2.1,5.4-3,7.5-2.2c0.7,0.3,1.2,1,1.3,1.7
		c2.2,0,4.4,0.8,6.1,2.2C101.6,199.5,102.6,202.1,102.6,205.5z M98.2,205.5c0-2.1-0.5-3.6-1.4-4.5c-0.9-0.8-2.1-1.2-3.3-1.2
		c-0.8,0.1-1.5-0.6-1.6-1.4c0-0.2,0-0.4,0.1-0.6c-0.4,0.2-0.9,0.1-1.4-0.1h-0.2c-1.3,0.2-2.5,0.9-3.4,1.9c-1.2,1.2-3.1,4.1-1.9,9.1
		c0.6,3,3.4,5,6.4,4.5C95.6,212.8,98.4,209.4,98.2,205.5z"/>
	<path class="st0" d="M126.3,208.8c-1.4,3.1-3.8,5.6-6.7,7.3c-1.7,1-3.7,1.6-5.7,1.6c-2.8,0-5.5-1.3-7.2-3.5
		c-1.3-1.7-2.1-3.9-2.1-6.1c0-3.8,1.4-7.4,4-10.1c2.1-2.4,4.9-4,8-4.6c1.3-0.2,2.7,0.1,3.8,0.7c1.2,0.8,2.1,2,2.4,3.5
		c0.2,1.2-0.6,2.3-1.8,2.5c-1.1,0.2-2.1-0.5-2.4-1.6c-0.1-0.4-0.2-0.9-1.4-0.8c-2.1,0.5-3.9,1.6-5.3,3.2c-1.8,1.9-2.8,4.4-2.8,7
		c0.1,2.8,1.5,4.7,3.8,5.2c2.9,0.7,7.1-1.1,9.8-6.4c0.5-1.1,1.9-1.5,2.9-1c0,0,0,0,0.1,0C126.5,206.5,126.9,207.8,126.3,208.8
		C126.3,208.8,126.3,208.8,126.3,208.8z"/>
	<path class="st0" d="M144.4,198.1c-0.4-0.2-0.9-0.3-1.3-0.3c-1.5,0-3.2,1.4-4.7,3.8s-3.2,6.7-3.8,14.1c-0.1,1.1-1,2-2.2,2h-0.1
		c-1.1-0.1-2-1-2.1-2.1c0-0.1-0.4-9.5-0.7-19.4c-0.6-20.3,0.1-23,0.3-23.8c0.3-1.2,1.5-1.9,2.7-1.6c1.2,0.3,1.8,1.5,1.5,2.7
		c-0.6,2.5-0.4,15-0.1,27.1l0.8-1.3c2.2-3.8,5.3-5.9,8.4-5.9c1.1,0,2.2,0.2,3.1,0.7l-0.8,2L144.4,198.1z M147.7,204.8l3.2-5.2
		c0.8,2.2,1.3,4.6,1.2,7c0.1,2.4-0.4,4.8-1.3,7.1c-1.4,3.5-3.8,4.1-5,4.1c-1.2,0-2.1-1-2.2-2.2c0-1.2,1-2.2,2.2-2.2
		c0.1,0,0.5-0.3,1-1.4c0.6-1.4,0.4-4.6,0.4-6.6"/>
	<path class="st0" d="M175.1,208.8c-1.5,3-3.8,5.6-6.7,7.3c-1.7,1-3.7,1.5-5.7,1.6c-0.8,0-1.5-0.1-2.2-0.3c-2-0.4-3.8-1.6-5-3.2
		c-1.3-1.8-2.1-3.9-2.1-6.2c0-3.7,1.4-7.4,3.9-10.1c2.1-2.4,4.9-4,8-4.6c1.3-0.2,2.7,0.1,3.9,0.7c2.6,1.7,3.2,5.2,1.5,7.8
		c-0.1,0.1-0.2,0.3-0.3,0.4c-1.5,1.8-4.3,2.9-8.5,3.3c-1.3,0.1-2.6,0.2-3.8,0.1c-0.2,0.7-0.2,1.4-0.2,2.2c0.1,2.8,1.4,4.6,3.7,5.2
		c2.9,0.7,7.1-1.1,9.9-6.4c0.6-1,1.9-1.4,2.9-0.9c1,0.5,1.5,1.7,1,2.8C175.2,208.7,175.2,208.8,175.1,208.8z M160.1,201.4
		c0.4,0,0.9-0.1,1.3-0.1c4.2-0.4,5.4-1.4,5.6-1.8c0.2-0.3,0.3-0.6,0.2-0.9c-0.1-0.4-0.2-0.8-1.1-0.8h-0.4c-2,0.5-3.8,1.5-5.2,3.1
		L160.1,201.4z"/>
	<path class="st0" d="M192.7,215.5c0,1.2-1,2.2-2.2,2.2c-2.4,0-4.7-1.1-6.2-3c-2.1-2.3-3.5-5.9-4.3-11.1c-0.5-3.5-0.8-6.9-0.9-10.4
		l-3.2,0.3h-0.1c-1.2,0-2.2-1-2.2-2.2c0-1.1,0.8-2.1,2-2.2l3.5-0.4c0.1-5.4,0.4-10.8,1.1-16.2c0.2-1.2,1.3-2,2.5-1.9
		c1.2,0.1,2,1.2,1.8,2.4c0,0,0,0.1,0,0.1c0,0.1-0.9,7.1-1,15.3l8-0.8c1.2-0.1,2.3,0.8,2.4,2c0,0,0,0,0,0c0.1,1.2-0.8,2.2-2,2.4
		l-8.5,0.8c0.2,9.6,1.7,16.3,4.2,19.1c0.7,0.9,1.8,1.4,3,1.4c1.2,0,2.2,0.9,2.2,2.1C192.7,215.5,192.7,215.5,192.7,215.5z"/>
</g>
</svg>
